<svg xmlns="http://www.w3.org/2000/svg" width="179.192" height="136.002" viewBox="0 0 179.192 136.002">
  <g id="Group_3229" data-name="Group 3229" transform="translate(0.001)">
    <path id="Path_25578" data-name="Path 25578" d="M2602.383,420.409h11.465v-4.189h-16.143v4.189ZM2614,437.623v-4.189h-11.619V428.94h10.091v-4.189h-14.77v12.873Zm-22.8-21.4h-5.074l-5.6,15.075-5.6-15.075h-5.2l8.654,21.557h4.158Zm-28.176,0h-4.709v21.4h4.709Zm-11.724,4.342v-4.342h-17.735v4.342h6.513v17.062h4.708V420.562Zm-19.952,17.062-9.172-21.556h-4.343l-9.174,21.556h4.8c3.135-7.691,3.239-7.984,6.483-15.9,3.3,8.066,3.25,7.972,6.482,15.9ZM2491.5,420.409h11.468v-4.189h-16.146v4.189Zm11.619,17.215v-4.189H2491.5V428.94h10.091v-4.189h-14.769v12.873Zm-28.513-14.035c0,1.8-1.315,3.027-3.608,3.027h-4.77V420.47h4.678c2.293,0,3.7,1.039,3.7,3.058Zm5.413,14.035-5.228-7.643a6.651,6.651,0,0,0,4.587-6.636v-.061c0-4.4-3.029-7.064-8.074-7.064h-9.785v21.4h4.709v-6.849h3.7l4.587,6.849Zm-25.454-3.454-3-3.027c-1.681,1.528-3.181,2.507-5.626,2.507-3.67,0-6.206-3.057-6.206-6.726v-.062c0-3.668,2.6-6.666,6.206-6.666a7.908,7.908,0,0,1,5.474,2.416l3-3.456a11.038,11.038,0,0,0-8.439-3.3,10.879,10.879,0,0,0-11.161,11.069v.06a10.8,10.8,0,0,0,10.978,11.008,10.944,10.944,0,0,0,8.776-3.822" transform="translate(-2434.811 -316.734)" fill="#aaa"/>
    <path id="Path_25579" data-name="Path 25579" d="M2648.069,518.466v-7.679H2646.4v4.727l-3.6-4.727h-1.559v7.679h1.667v-4.882l3.72,4.882Zm-15.4-3.215h-2.039l1.019-2.489Zm3.074,3.215-3.292-7.734h-1.559l-3.292,7.734h1.722l.7-1.723h3.248l.7,1.723Zm-13.424-1.086v-3.336h-3.335v1.46h1.7v1.1a2.705,2.705,0,0,1-1.591.461,2.3,2.3,0,0,1-2.326-2.436V514.6a2.306,2.306,0,0,1,2.2-2.391,2.831,2.831,0,0,1,2.008.778l1.064-1.283a4.215,4.215,0,0,0-3.016-1.053,3.941,3.941,0,0,0-4.026,3.971v.022a3.843,3.843,0,0,0,4.037,3.949,4.991,4.991,0,0,0,3.281-1.216m-14.565-2.733a2.3,2.3,0,0,1-2.3,2.393,2.333,2.333,0,0,1-2.326-2.414V514.6a2.3,2.3,0,0,1,2.3-2.391,2.333,2.333,0,0,1,2.326,2.413Zm1.765-.022V514.6a4.082,4.082,0,0,0-8.161.022v.022a4.082,4.082,0,0,0,8.161-.022m-12.973,3.84v-1.537h-3.828v-6.142h-1.689v7.679Zm-11.307-2.272v-.021c0-1.339-.878-1.9-2.435-2.3-1.329-.34-1.657-.5-1.657-1.01v-.022c0-.373.339-.67.987-.67a3.6,3.6,0,0,1,2,.758l.878-1.273a4.445,4.445,0,0,0-2.852-.976,2.4,2.4,0,0,0-2.69,2.314v.023c0,1.524,1,1.952,2.546,2.347,1.285.329,1.548.55,1.548.976v.023c0,.45-.417.724-1.108.724a3.515,3.515,0,0,1-2.292-.933l-1,1.2a4.889,4.889,0,0,0,3.259,1.229c1.656,0,2.82-.857,2.82-2.382m-19.687-2.764c0,.648-.472,1.086-1.3,1.086h-1.711v-2.2h1.678c.824,0,1.329.373,1.329,1.1Zm1.941,5.036-1.876-2.742a2.387,2.387,0,0,0,1.646-2.381v-.022c0-1.579-1.087-2.534-2.9-2.534h-3.509v7.679h1.689v-2.458h1.328l1.644,2.458Zm-12.678-3.346v-4.334h-1.689v4.4c0,1.217-.626,1.843-1.656,1.843s-1.657-.648-1.657-1.9v-4.343h-1.689v4.388c0,2.26,1.261,3.411,3.324,3.411s3.367-1.14,3.367-3.465m-14.158-.473a2.3,2.3,0,0,1-2.3,2.393,2.333,2.333,0,0,1-2.326-2.414V514.6a2.3,2.3,0,0,1,2.3-2.391,2.333,2.333,0,0,1,2.326,2.413Zm1.765-.022V514.6a4.082,4.082,0,0,0-8.161.022v.022a4.082,4.082,0,0,0,8.161-.022m-12.534-3.839h-1.92l-1.865,3.083-1.833-3.083H2522.3l2.95,4.651v3.028h1.691V515.4Z" transform="translate(-2495.588 -382.594)" fill="#aaa"/>
    <path id="Path_25585" data-name="Path 25585" d="M2651.8,115.077h-10.089l-9.052,11.541-3.137,4-3.135-4-9.054-11.541h-10.089l15.307,19.513,1.935,2.465-1.935,2.464-11.567,14.747h10.076Zm49.1-23.9-18.743,23.9h-20.215l-37.008,47.178h-30.358l19.77-25.2-23.506-29.967h30.343l8.342,10.634,8.341-10.634h20.2l12.476-15.906ZM2684.49,99.17h-10.076l-6.211,7.917h10.076Z" transform="translate(-2543.203 -91.181)" fill="#aaa" fill-rule="evenodd"/>
  </g>
</svg>
