<svg id="Group_3230" data-name="Group 3230" xmlns="http://www.w3.org/2000/svg" width="179.191" height="145.46" viewBox="0 0 179.191 145.46">
  <path id="Path_25572" data-name="Path 25572" d="M167.571,420.409h11.467v-4.189H162.893v4.189Zm11.621,17.215v-4.189H167.571V428.94h10.091v-4.189h-14.77v12.873Zm-22.8-21.4h-5.075l-5.6,15.075-5.6-15.075h-5.2l8.654,21.557h4.157Zm-28.176,0h-4.708v21.4h4.708ZM116.5,420.562v-4.342H98.76v4.342h6.514v17.062h4.709V420.562ZM96.545,437.623l-9.173-21.556H83.03l-9.174,21.556h4.8c3.135-7.691,3.239-7.984,6.484-15.9,3.3,8.066,3.25,7.972,6.482,15.9ZM56.688,420.409H68.155v-4.189H52.01v4.189Zm11.619,17.215v-4.189H56.688V428.94h10.09v-4.189H52.01v12.873ZM39.8,423.589c0,1.8-1.315,3.027-3.609,3.027h-4.77V420.47H36.1c2.294,0,3.7,1.039,3.7,3.058Zm5.413,14.035-5.229-7.643a6.649,6.649,0,0,0,4.586-6.636v-.061c0-4.4-3.026-7.064-8.073-7.064H26.707v21.4h4.71v-6.849h3.7l4.586,6.849Zm-25.455-3.454-3-3.027c-1.682,1.528-3.18,2.507-5.626,2.507-3.67,0-6.208-3.057-6.208-6.726v-.062c0-3.668,2.6-6.666,6.208-6.666a7.906,7.906,0,0,1,5.474,2.416l3-3.456a11.04,11.04,0,0,0-8.439-3.3A10.879,10.879,0,0,0,0,426.922v.06a10.8,10.8,0,0,0,10.977,11.008,10.942,10.942,0,0,0,8.776-3.822" transform="translate(0 -307.276)" fill="#aaa"/>
  <path id="Path_25573" data-name="Path 25573" d="M213.256,518.466v-7.679h-1.669v4.727l-3.6-4.727h-1.558v7.679H208.1v-4.882l3.718,4.882Zm-15.4-3.215h-2.041l1.021-2.489Zm3.071,3.215-3.29-7.734H196.08l-3.291,7.734h1.722l.7-1.723h3.248l.7,1.723ZM187.5,517.38v-3.336h-3.336v1.46h1.7v1.1a2.7,2.7,0,0,1-1.591.461,2.3,2.3,0,0,1-2.325-2.436V514.6a2.306,2.306,0,0,1,2.205-2.391,2.826,2.826,0,0,1,2.006.778l1.065-1.283a4.219,4.219,0,0,0-3.017-1.053,3.941,3.941,0,0,0-4.026,3.971v.022a3.842,3.842,0,0,0,4.037,3.949,4.989,4.989,0,0,0,3.28-1.216m-14.565-2.733a2.3,2.3,0,0,1-2.3,2.393,2.333,2.333,0,0,1-2.326-2.414V514.6a2.3,2.3,0,0,1,2.3-2.391,2.333,2.333,0,0,1,2.326,2.413Zm1.766-.022V514.6a4.083,4.083,0,0,0-8.162.022v.022a4.083,4.083,0,0,0,8.162-.022m-12.975,3.84v-1.537H157.9v-6.142h-1.689v7.679Zm-11.306-2.272v-.021c0-1.339-.877-1.9-2.435-2.3-1.327-.34-1.657-.5-1.657-1.01v-.022c0-.373.34-.67.987-.67a3.6,3.6,0,0,1,2,.758l.877-1.273a4.446,4.446,0,0,0-2.852-.976,2.4,2.4,0,0,0-2.687,2.314v.023c0,1.524,1,1.952,2.545,2.347,1.284.329,1.548.55,1.548.976v.023c0,.45-.417.724-1.109.724a3.526,3.526,0,0,1-2.294-.933l-1,1.2a4.889,4.889,0,0,0,3.258,1.229c1.656,0,2.82-.857,2.82-2.382m-19.687-2.764c0,.648-.472,1.086-1.294,1.086h-1.712v-2.2h1.679c.823,0,1.327.373,1.327,1.1Zm1.941,5.036-1.875-2.742a2.386,2.386,0,0,0,1.645-2.381v-.022c0-1.579-1.086-2.534-2.9-2.534h-3.511v7.679h1.689v-2.458h1.328l1.645,2.458ZM120,515.12v-4.334h-1.69v4.4c0,1.217-.624,1.843-1.657,1.843s-1.656-.648-1.656-1.9v-4.343H113.31v4.388c0,2.26,1.262,3.411,3.325,3.411S120,517.445,120,515.12m-14.16-.473a2.3,2.3,0,0,1-2.3,2.393,2.334,2.334,0,0,1-2.326-2.414V514.6a2.3,2.3,0,0,1,2.3-2.391,2.333,2.333,0,0,1,2.325,2.413Zm1.766-.022V514.6a4.083,4.083,0,0,0-8.162.022v.022a4.083,4.083,0,0,0,8.162-.022m-12.535-3.839H93.154l-1.864,3.083-1.832-3.083H87.482l2.951,4.651v3.028h1.69V515.4Z" transform="translate(-60.774 -373.136)" fill="#aaa"/>
  <path id="Path_25582" data-name="Path 25582" d="M184.243,94.525h33.281l3.429,5.942q-8.318,14.411-16.64,28.823h-26.93l-6.606,11.442q20.072,0,40.143,0,11.623-20.134,23.247-40.265-5.018-8.693-10.037-17.385h-59.7l6.606-11.439,46.493,0L210.919,60.2H164.425l-23.249,40.266,6.607,11.441L157.82,94.524h13.211L154.39,123.348,161,134.79q11.625-20.133,23.247-40.265m0,22.879h13.212l6.606-11.442H190.852Z" transform="translate(-98.077 -60.199)" fill="#aaa" fill-rule="evenodd"/>
</svg>
