<svg xmlns="http://www.w3.org/2000/svg" width="179.192" height="163.838" viewBox="0 0 179.192 163.838">
  <g id="Group_3231" data-name="Group 3231" transform="translate(0.001)">
    <path id="Path_25574" data-name="Path 25574" d="M979.176,420.409h11.465v-4.189H974.5v4.189Zm11.62,17.215v-4.189h-11.62V428.94h10.089v-4.189H974.5v12.873Zm-22.8-21.4h-5.076l-5.6,15.075-5.6-15.075h-5.2l8.654,21.557h4.159Zm-28.176,0h-4.709v21.4h4.709ZM928.1,420.562v-4.342H910.364v4.342h6.513v17.062h4.709V420.562Zm-19.952,17.062-9.172-21.556h-4.343l-9.174,21.556h4.8c3.135-7.691,3.239-7.984,6.482-15.9,3.3,8.066,3.25,7.972,6.48,15.9Zm-39.856-17.215h11.465v-4.189H863.614v4.189Zm11.62,17.215v-4.189h-11.62V428.94h10.089v-4.189H863.614v12.873ZM851.4,423.589c0,1.8-1.315,3.027-3.609,3.027h-4.769V420.47H847.7c2.293,0,3.7,1.039,3.7,3.058Zm5.413,14.035-5.228-7.643a6.649,6.649,0,0,0,4.585-6.636v-.061c0-4.4-3.026-7.064-8.072-7.064h-9.785v21.4h4.709v-6.849h3.7l4.587,6.849Zm-25.456-3.454-3-3.027c-1.682,1.528-3.18,2.507-5.626,2.507-3.669,0-6.206-3.057-6.206-6.726v-.062c0-3.668,2.6-6.666,6.206-6.666a7.9,7.9,0,0,1,5.474,2.416l3-3.456a11.038,11.038,0,0,0-8.439-3.3,10.879,10.879,0,0,0-11.16,11.069v.06a10.8,10.8,0,0,0,10.978,11.008,10.937,10.937,0,0,0,8.774-3.822" transform="translate(-811.604 -288.898)" fill="#aaa"/>
    <path id="Path_25575" data-name="Path 25575" d="M1024.862,518.466v-7.679H1023.2v4.727l-3.6-4.727h-1.558v7.679h1.667v-4.882l3.719,4.882Zm-15.4-3.215h-2.039l1.02-2.489Zm3.072,3.215-3.289-7.734h-1.559l-3.291,7.734h1.722l.7-1.723h3.247l.7,1.723Zm-13.424-1.086v-3.336h-3.335v1.46h1.7v1.1a2.694,2.694,0,0,1-1.589.461,2.3,2.3,0,0,1-2.326-2.436V514.6a2.306,2.306,0,0,1,2.2-2.391,2.832,2.832,0,0,1,2.008.778l1.063-1.283a4.214,4.214,0,0,0-3.017-1.053,3.942,3.942,0,0,0-4.026,3.971v.022a3.844,3.844,0,0,0,4.039,3.949,4.98,4.98,0,0,0,3.278-1.216m-14.565-2.733a2.3,2.3,0,0,1-2.3,2.393,2.333,2.333,0,0,1-2.326-2.414V514.6a2.3,2.3,0,0,1,2.3-2.391,2.332,2.332,0,0,1,2.324,2.413Zm1.767-.022V514.6a4.082,4.082,0,0,0-8.161.022v.022a4.082,4.082,0,0,0,8.161-.022m-12.974,3.84v-1.537h-3.828v-6.142h-1.689v7.679Zm-11.306-2.272v-.021c0-1.339-.878-1.9-2.435-2.3-1.328-.34-1.659-.5-1.659-1.01v-.022c0-.373.341-.67.989-.67a3.6,3.6,0,0,1,2,.758l.878-1.273a4.449,4.449,0,0,0-2.852-.976,2.4,2.4,0,0,0-2.689,2.314v.023c0,1.524,1,1.952,2.545,2.347,1.283.329,1.548.55,1.548.976v.023c0,.45-.417.724-1.109.724a3.523,3.523,0,0,1-2.293-.933l-1,1.2a4.89,4.89,0,0,0,3.259,1.229c1.657,0,2.82-.857,2.82-2.382m-19.687-2.764c0,.648-.474,1.086-1.3,1.086H939.34v-2.2h1.678c.822,0,1.329.373,1.329,1.1Zm1.941,5.036-1.876-2.742a2.387,2.387,0,0,0,1.646-2.381v-.022c0-1.579-1.087-2.534-2.9-2.534H937.65v7.679h1.689v-2.458h1.328l1.644,2.458Zm-12.678-3.346v-4.334H929.92v4.4c0,1.217-.626,1.843-1.656,1.843s-1.656-.648-1.656-1.9v-4.343h-1.689v4.388c0,2.26,1.261,3.411,3.324,3.411s3.367-1.14,3.367-3.465m-14.158-.473a2.3,2.3,0,0,1-2.3,2.393,2.333,2.333,0,0,1-2.326-2.414V514.6a2.3,2.3,0,0,1,2.3-2.391,2.333,2.333,0,0,1,2.326,2.413Zm1.765-.022V514.6a4.082,4.082,0,0,0-8.161.022v.022a4.082,4.082,0,0,0,8.161-.022m-12.535-3.839h-1.919l-1.865,3.083-1.833-3.083H899.09l2.95,4.651v3.028h1.689V515.4Z" transform="translate(-872.381 -354.758)" fill="#aaa"/>
    <path id="Path_25583" data-name="Path 25583" d="M1054.905,20.292l-39.539,22.826V35l39.539-22.828Zm-39.539,47.177,39.539-22.827v8.117l-39.539,22.827Zm-7.028,27.382,7.028,4.059V83.7l46.569-26.886V32.466l-7.03,4.06L1008.339,63.41Zm53.6-70.5V0l-53.6,30.943V47.178L994.28,55.295V86.734l7.028,4.058V59.352q30.316-17.5,60.628-35" transform="translate(-938.511)" fill="#aaa" fill-rule="evenodd"/>
  </g>
</svg>
