<svg id="Group_3233" data-name="Group 3233" xmlns="http://www.w3.org/2000/svg" width="179.191" height="145.46" viewBox="0 0 179.191 145.46">
  <path id="Path_25580" data-name="Path 25580" d="M3413.988,420.409h11.468v-4.189H3409.31v4.189Zm11.619,17.215v-4.189h-11.619V428.94h10.091v-4.189H3409.31v12.873Zm-22.793-21.4h-5.076l-5.6,15.075-5.6-15.075h-5.2L3390,437.777h4.159Zm-28.176,0h-4.711v21.4h4.711Zm-11.726,4.342v-4.342h-17.735v4.342h6.513v17.062h4.709V420.562Zm-19.952,17.062-9.172-21.556h-4.341l-9.174,21.556h4.8c3.135-7.691,3.239-7.984,6.483-15.9,3.3,8.066,3.25,7.972,6.482,15.9ZM3303.1,420.409h11.468v-4.189h-16.146v4.189Zm11.619,17.215v-4.189H3303.1V428.94H3313.2v-4.189h-14.769v12.873Zm-28.513-14.035c0,1.8-1.313,3.027-3.609,3.027h-4.77V420.47h4.678c2.294,0,3.7,1.039,3.7,3.058Zm5.413,14.035-5.228-7.643a6.649,6.649,0,0,0,4.586-6.636v-.061c0-4.4-3.028-7.064-8.074-7.064h-9.785v21.4h4.708v-6.849h3.7l4.585,6.849Zm-25.454-3.454-3-3.027c-1.68,1.528-3.18,2.507-5.626,2.507-3.67,0-6.207-3.057-6.207-6.726v-.062c0-3.668,2.6-6.666,6.207-6.666a7.9,7.9,0,0,1,5.474,2.416l3-3.456a11.047,11.047,0,0,0-8.441-3.3,10.879,10.879,0,0,0-11.161,11.069v.06a10.805,10.805,0,0,0,10.978,11.008,10.943,10.943,0,0,0,8.776-3.822" transform="translate(-3246.416 -307.276)" fill="#aaa"/>
  <path id="Path_25581" data-name="Path 25581" d="M3459.674,518.466v-7.679h-1.668v4.727l-3.6-4.727h-1.559v7.679h1.667v-4.882l3.719,4.882Zm-15.4-3.215h-2.041l1.019-2.489Zm3.072,3.215-3.292-7.734H3442.5l-3.292,7.734h1.724l.7-1.723h3.245l.7,1.723Zm-13.424-1.086v-3.336h-3.335v1.46h1.7v1.1a2.7,2.7,0,0,1-1.591.461,2.3,2.3,0,0,1-2.326-2.436V514.6a2.308,2.308,0,0,1,2.207-2.391,2.826,2.826,0,0,1,2.006.778l1.065-1.283a4.218,4.218,0,0,0-3.018-1.053,3.941,3.941,0,0,0-4.026,3.971v.022a3.842,3.842,0,0,0,4.037,3.949,4.99,4.99,0,0,0,3.281-1.216m-14.565-2.733a2.3,2.3,0,0,1-2.3,2.393,2.333,2.333,0,0,1-2.326-2.414V514.6a2.3,2.3,0,0,1,2.3-2.391,2.333,2.333,0,0,1,2.326,2.413Zm1.765-.022V514.6a4.082,4.082,0,0,0-8.161.022v.022a4.082,4.082,0,0,0,8.161-.022m-12.973,3.84v-1.537h-3.828v-6.142h-1.689v7.679Zm-11.306-2.272v-.021c0-1.339-.879-1.9-2.435-2.3-1.329-.34-1.657-.5-1.657-1.01v-.022c0-.373.339-.67.987-.67a3.593,3.593,0,0,1,2,.758l.878-1.273a4.445,4.445,0,0,0-2.852-.976,2.4,2.4,0,0,0-2.687,2.314v.023c0,1.524,1,1.952,2.545,2.347,1.283.329,1.546.55,1.546.976v.023c0,.45-.418.724-1.108.724a3.519,3.519,0,0,1-2.292-.933l-1,1.2a4.9,4.9,0,0,0,3.259,1.229c1.657,0,2.82-.857,2.82-2.382m-19.687-2.764c0,.648-.472,1.086-1.3,1.086h-1.71v-2.2h1.678c.824,0,1.328.373,1.328,1.1Zm1.941,5.036-1.876-2.742a2.387,2.387,0,0,0,1.646-2.381v-.022c0-1.579-1.087-2.534-2.9-2.534h-3.511v7.679h1.69v-2.458h1.328l1.646,2.458Zm-12.678-3.346v-4.334h-1.689v4.4c0,1.217-.625,1.843-1.657,1.843s-1.656-.648-1.656-1.9v-4.343h-1.689v4.388c0,2.26,1.261,3.411,3.324,3.411s3.368-1.14,3.368-3.465m-14.159-.473a2.3,2.3,0,0,1-2.3,2.393,2.333,2.333,0,0,1-2.326-2.414V514.6a2.3,2.3,0,0,1,2.3-2.391,2.333,2.333,0,0,1,2.326,2.413Zm1.765-.022V514.6a3.933,3.933,0,0,0-4.068-3.949,3.972,3.972,0,0,0-4.093,3.971v.022a4.082,4.082,0,0,0,8.161-.022m-12.535-3.839h-1.92l-1.865,3.083-1.831-3.083H3333.9l2.952,4.651v3.028h1.688V515.4Z" transform="translate(-3307.193 -373.136)" fill="#aaa"/>
  <path id="Path_25586" data-name="Path 25586" d="M3423.728,100.416h9.479v-.828a14.716,14.716,0,0,1,3.246-8.623l-6.746-6.747a24.537,24.537,0,0,0-4.2,6.863,27.649,27.649,0,0,0-1.779,9.335m7.285-17.583,6.737,6.737a15.634,15.634,0,0,1,9.5-4.16V75.876a24.742,24.742,0,0,0-16.237,6.957m18.141-6.969V85.38a14.4,14.4,0,0,1,9.55,4.14l6.732-6.733a24.089,24.089,0,0,0-16.282-6.924m17.58,8.318-6.762,6.763a16.243,16.243,0,0,1,1.293,1.915,14.963,14.963,0,0,1,2.013,7.557h9.526A24.449,24.449,0,0,0,3469.51,88.1a25.554,25.554,0,0,0-2.777-3.916m5.991,18.139h-9.578a15.075,15.075,0,0,1-4.115,8.531l6.737,6.738a24.6,24.6,0,0,0,6.956-15.269m-8.343,16.574-6.763-6.761a15.027,15.027,0,0,1-1.876,1.278,15.363,15.363,0,0,1-6.589,2.03v9.486a24.65,24.65,0,0,0,15.228-6.033m-44.852-4.251a32.04,32.04,0,1,1,28.737,17.858q-.513,0-1.018-.016V115.428a16.128,16.128,0,0,1-8.411-3.349,13.247,13.247,0,0,1-1.48-1.289v28.446a40.3,40.3,0,1,0-17.828-10.565Zm13.676-12.323h-9.533c-.15,9.989.011,20.043.011,30.039a40.119,40.119,0,0,0,9.521,5.459Z" transform="translate(-3358.67 -60.199)" fill="#aaa" fill-rule="evenodd"/>
</svg>
