<svg id="eQCP6aTuiJ81" xmlns="http://www.w3.org/2000/svg" xmlns:xlink="http://www.w3.org/1999/xlink" viewBox="0 0 200 201.28" shape-rendering="geometricPrecision" text-rendering="geometricPrecision"><style><![CDATA[#eQCP6aTuiJ82_tr {animation: eQCP6aTuiJ82_tr__tr 1420ms linear infinite normal forwards}@keyframes eQCP6aTuiJ82_tr__tr { 0% {transform: translate(100px,100.64px) rotate(0deg)} 100% {transform: translate(100px,100.64px) rotate(90deg)}} #eQCP6aTuiJ83 {animation: eQCP6aTuiJ83_c_o 1420ms linear infinite normal forwards}@keyframes eQCP6aTuiJ83_c_o { 0% {opacity: 0;animation-timing-function: cubic-bezier(0.42,0,0.58,1)} 14.084507% {opacity: 1} 100% {opacity: 1}} #eQCP6aTuiJ86 {animation: eQCP6aTuiJ86_c_o 1420ms linear infinite normal forwards}@keyframes eQCP6aTuiJ86_c_o { 0% {opacity: 0} 71.830986% {opacity: 0;animation-timing-function: cubic-bezier(0.42,0,0.58,1)} 85.915493% {opacity: 1} 100% {opacity: 1}} #eQCP6aTuiJ89 {animation: eQCP6aTuiJ89_c_o 1420ms linear infinite normal forwards}@keyframes eQCP6aTuiJ89_c_o { 0% {opacity: 0} 57.042254% {opacity: 0;animation-timing-function: cubic-bezier(0.42,0,0.58,1)} 71.830986% {opacity: 1} 100% {opacity: 1}} #eQCP6aTuiJ812 {animation: eQCP6aTuiJ812_c_o 1420ms linear infinite normal forwards}@keyframes eQCP6aTuiJ812_c_o { 0% {opacity: 0} 42.957746% {opacity: 0;animation-timing-function: cubic-bezier(0.42,0,0.58,1)} 57.042254% {opacity: 1} 100% {opacity: 1}} #eQCP6aTuiJ815 {animation: eQCP6aTuiJ815_c_o 1420ms linear infinite normal forwards}@keyframes eQCP6aTuiJ815_c_o { 0% {opacity: 0} 28.169014% {opacity: 0;animation-timing-function: cubic-bezier(0.42,0,0.58,1)} 42.957746% {opacity: 1} 100% {opacity: 1}} #eQCP6aTuiJ818 {animation: eQCP6aTuiJ818_c_o 1420ms linear infinite normal forwards}@keyframes eQCP6aTuiJ818_c_o { 0% {opacity: 0} 14.084507% {opacity: 0;animation-timing-function: cubic-bezier(0.42,0,0.58,1)} 28.169014% {opacity: 1} 100% {opacity: 1}}]]></style><g id="eQCP6aTuiJ82_tr" transform="translate(100,100.64) rotate(0)"><g transform="translate(-93.149998,-93.750005)"><g id="eQCP6aTuiJ83" opacity="0"><g><path d="M97,96.5c0-.5,0-1.1,0-1.7c0,0,0,0,0,0v0c-.1-2.9-.4-6.2-.7-8.3-.1-.7-.2-1.4-.4-2.1C90,50.8,61.1,25.8,26.6,25.2c-1.9,0-3.6,1.5-3.6,3.5c0,0,0,0,0,.1v6.1c0,.4,0,.8.1,1.2C24.4,48,28.7,59.4,35.5,69.2c1.1,1.6,3.3,2,4.9.9.8-.5,1.3-1.4,1.5-2.3s0-1.9-.6-2.6c-6.2-8.9-10.1-19.2-11.2-30v-2.7C46,33.6,60.9,40.6,71.9,52.1c9,9.3,14.9,21,17.1,33.7.1.8.2,1.6.3,2.5c0,0,0,0,0,.1.2,1.9,1.2,3.6,2.7,4.7l5,3.4Z" fill="#dc1559"/></g></g><g id="eQCP6aTuiJ86" opacity="0"><g><path d="M97.5,91.8c-.5-.3-1-.6-1.5-.9c0,0,0,0,0,0v0c-2.6-1.4-5.6-2.7-7.6-3.5-.7-.3-1.3-.5-2-.7-32.1-11.7-68.2.8-85.9,30.4-1,1.7-.5,3.8,1.2,4.8c0,0,0,0,0,0L7,125c.3.2.7.4,1,.5c10.9,4.8,22.9,6.8,34.9,5.8c1.9-.2,3.4-1.9,3.2-3.8-.1-.9-.5-1.8-1.2-2.4s-1.6-.9-2.6-.8c-10.8.9-21.7-.9-31.6-5.3l-2.3-1.4C17.3,104.4,30.8,95,46.3,91.2c12.5-3.1,25.6-2.4,37.7,2c.8.3,1.5.6,2.3,1c0,0,0,0,.1,0c1.7.8,3.7.8,5.5,0l5.6-2.4Z" fill="#dc1559"/></g></g><g id="eQCP6aTuiJ89" opacity="0"><g><path d="M93.7,89c-.5.3-1,.5-1.5.9c0,0,0,0,0,0v0c-2.5,1.5-5.2,3.5-6.8,4.8-.6.4-1.1.9-1.6,1.4-26.1,22-33.3,59.5-16.6,89.6.9,1.7,3.1,2.3,4.8,1.4c0,0,0,0,0,0l5.3-3.1c.3-.2.7-.4,1-.6c9.7-7.1,17.4-16.5,22.4-27.3.8-1.8.1-3.9-1.7-4.7-.8-.4-1.8-.4-2.7-.1s-1.6,1-2,1.8c-4.6,9.8-11.6,18.3-20.3,24.7l-2.3,1.4c-7-14.3-8.4-30.7-3.9-46c3.5-12.4,10.8-23.4,20.6-31.7.7-.6,1.3-1,2-1.5c0,0,0,0,0,0c1.5-1.1,2.5-2.8,2.7-4.7l.6-6.3Z" fill="#dc1559"/></g></g><g id="eQCP6aTuiJ812" opacity="0"><g><path d="M89.3,90.9c0,.5,0,1.1,0,1.7c0,0,0,0,0,0v0c.1,2.9.4,6.2.7,8.3.1.7.2,1.4.4,2.1c5.9,33.6,34.9,58.6,69.3,59.2c1.9,0,3.6-1.5,3.6-3.5c0,0,0,0,0-.1v-6.6c0-.1,0-.2,0-.4-1.2-12-5.5-23.6-12.5-33.5-1.1-1.6-3.3-2-4.9-.9-.8.5-1.3,1.4-1.5,2.3s0,1.9.6,2.6c6.2,8.9,10.1,19.2,11.2,30v2.7c-15.9-1.1-30.8-8.1-41.8-19.6-9-9.3-14.9-21-17.1-33.7-.1-.8-.2-1.6-.3-2.5-.2-2-.2-3-.2-3l-7.5-5.1Z" fill="#dc1559"/></g></g><g id="eQCP6aTuiJ815" opacity="0"><g><path d="M88.8,95.7c.5.3,1,.6,1.5.9c0,0,0,0,0,0v0c2.6,1.4,5.6,2.7,7.6,3.5.7.3,1.3.5,2,.7c32.1,11.7,68.2-.9,85.9-30.4c1-1.7.5-3.8-1.2-4.8c0,0,0,0,0,0l-5.3-3.1c-.3-.2-.7-.4-1-.5-10.9-4.8-22.9-6.8-34.9-5.8-1.9.2-3.4,1.9-3.2,3.8.1.9.5,1.8,1.2,2.4s1.6.9,2.6.8c10.8-.9,21.7.9,31.6,5.3l2.3,1.4C169,83,155.5,92.4,140,96.2c-12.5,3.1-25.6,2.4-37.7-2-.8-.3-1.5-.6-2.3-1c0,0,0,0-.1,0-1.7-.8-3.7-.8-5.5,0l-5.6,2.5Z" fill="#dc1559"/></g></g><g id="eQCP6aTuiJ818" opacity="0"><g><path d="M92.7,98.5c.5-.3,1-.5,1.5-.9c0,0,0,0,0,0v0c2.5-1.5,5.2-3.5,6.8-4.8.6-.4,1.1-.9,1.6-1.4c26.1-22,33.3-59.5,16.6-89.6-.9-1.7-3.1-2.3-4.8-1.4c0,0,0,0,0,0l-5.3,3.1c-.3.2-.7.4-1,.6-9.7,7.1-17.4,16.5-22.4,27.3-.8,1.8-.1,3.9,1.7,4.7.8.4,1.8.4,2.7.1s1.6-1,2-1.8c4.6-9.8,11.6-18.3,20.3-24.7l2.3-1.4c7,14.3,8.4,30.7,3.9,46C115.1,66.7,107.8,77.7,98,86c-.7.6-1.3,1-2,1.5c0,0,0,0,0,0-1.5,1.1-2.5,2.8-2.7,4.7l-.6,6.3Z" fill="#dc1559"/></g></g></g></g><ellipse rx="4.55" ry="4.55" transform="matrix(1.218798 0 0 1.218806 100.000002 100.639995)" fill="#dc1559" stroke-width="0"/></svg>